PathFileType	4	(X / Y / Z)	Demo_145623_11_September_2019	Demo_145623_11_September_2019.trc
DataRate	CameraRate	NumFrames	NumMarkers	Units	OrigDataRate	OrigDataStartFrame	OrigNumFrames
50	50	10	25	m	50	255	820
Frame#	Time		SpineBase		SpineMid		Neck		Head		ShoulderLeft		ElbowLeft		WristLeft		HandLeft		ShoulderRight		ElbowRight		WristRight		HandRight		HipLeft		KneeLeft		AnkleLeft		FootLeft		HipRight		KneeRight		AnkleRight		FootRight		SpineShoulder		HandTipLeft		LeftThumb		HandTipRight		ThumbRight		
X1	Y1	Z1	X2	Y2	Z2	X3	Y3	Z3	X4	Y4	Z4	X5	Y5	Z5	X6	Y6	Z6	X7	Y7	Z7	X8	Y8	Z8	X9	Y9	Z9	X10	Y10	Z10	X11	Y11	Z11	X12	Y12	Z12	X13	Y13	Z13	X14	Y14	Z14	X15	Y15	Z15	X16	Y16	Z16	X17	Y17	Z17	X18	Y18	Z18	X19	Y19	Z19	X20	Y20	Z20	X21	Y21	Z21	X22	Y22	Z22	X23	Y23	Z23	X24	Y24	Z24	X25	Y25	Z25	
206	26.737	-0.056	0.800	1.735	-0.070	1.076	1.703	-0.082	1.339	1.658	-0.081	1.478	1.621	-0.226	1.237	1.644	-0.269	0.991	1.653	-0.310	0.813	1.612	-0.318	0.736	1.596	0.083	1.225	1.656	0.126	0.951	1.715	0.177	0.745	1.787	0.180	0.695	1.787	-0.126	0.803	1.697	-0.151	0.507	1.754	-0.107	0.190	1.871	-0.098	0.154	1.769	0.016	0.804	1.709	0.061	0.513	1.773	0.071	0.206	1.916	0.074	0.157	1.809	-0.079	1.275	1.672	-0.313	0.669	1.598	-0.349	0.747	1.622	0.176	0.588	1.812	0.170	0.588	1.789
207	26.753	-0.056	0.800	1.735	-0.070	1.076	1.703	-0.082	1.339	1.658	-0.081	1.478	1.621	-0.226	1.237	1.644	-0.269	0.991	1.653	-0.310	0.813	1.612	-0.318	0.736	1.596	0.083	1.225	1.656	0.126	0.951	1.715	0.177	0.745	1.787	0.180	0.695	1.787	-0.126	0.803	1.697	-0.151	0.507	1.754	-0.107	0.190	1.871	-0.098	0.154	1.769	0.016	0.804	1.709	0.061	0.513	1.773	0.071	0.206	1.916	0.074	0.157	1.809	-0.079	1.275	1.672	-0.313	0.669	1.598	-0.349	0.747	1.622	0.176	0.588	1.812	0.170	0.588	1.789
208	26.770	-0.057	0.797	1.733	-0.070	1.074	1.702	-0.081	1.338	1.656	-0.081	1.478	1.619	-0.225	1.237	1.643	-0.269	0.990	1.652	-0.310	0.812	1.610	-0.318	0.735	1.593	0.081	1.222	1.655	0.108	0.953	1.716	0.119	0.747	1.748	0.113	0.680	1.735	-0.127	0.801	1.696	-0.151	0.505	1.754	-0.107	0.196	1.869	-0.099	0.158	1.764	0.015	0.801	1.707	0.062	0.511	1.772	0.071	0.205	1.916	0.074	0.155	1.809	-0.079	1.274	1.670	-0.313	0.669	1.594	-0.349	0.748	1.619	0.112	0.587	1.762	0.090	0.644	1.716
209	26.787	-0.057	0.797	1.733	-0.070	1.074	1.702	-0.081	1.338	1.656	-0.081	1.478	1.619	-0.225	1.237	1.643	-0.269	0.990	1.652	-0.310	0.812	1.610	-0.318	0.735	1.593	0.081	1.222	1.655	0.108	0.953	1.716	0.119	0.747	1.748	0.113	0.680	1.735	-0.127	0.801	1.696	-0.151	0.505	1.754	-0.107	0.196	1.869	-0.099	0.158	1.764	0.015	0.801	1.707	0.062	0.511	1.772	0.071	0.205	1.916	0.074	0.155	1.809	-0.079	1.274	1.670	-0.313	0.669	1.594	-0.349	0.748	1.619	0.112	0.587	1.762	0.090	0.644	1.716
210	26.804	-0.057	0.795	1.732	-0.070	1.073	1.700	-0.080	1.338	1.655	-0.080	1.477	1.618	-0.225	1.236	1.642	-0.269	0.990	1.651	-0.311	0.812	1.608	-0.319	0.735	1.591	0.080	1.220	1.653	0.097	0.960	1.719	0.083	0.722	1.761	0.102	0.690	1.731	-0.127	0.799	1.695	-0.152	0.504	1.754	-0.107	0.205	1.867	-0.100	0.165	1.758	0.015	0.799	1.705	0.063	0.509	1.771	0.071	0.204	1.916	0.074	0.153	1.809	-0.078	1.273	1.668	-0.313	0.669	1.592	-0.350	0.746	1.614	0.089	0.599	1.745	0.055	0.668	1.697
211	26.820	-0.057	0.795	1.732	-0.070	1.073	1.700	-0.080	1.338	1.655	-0.080	1.477	1.618	-0.225	1.236	1.642	-0.269	0.990	1.651	-0.311	0.812	1.608	-0.319	0.735	1.591	0.080	1.220	1.653	0.097	0.960	1.719	0.083	0.722	1.761	0.102	0.690	1.731	-0.127	0.799	1.695	-0.152	0.504	1.754	-0.107	0.205	1.867	-0.100	0.165	1.758	0.015	0.799	1.705	0.063	0.509	1.771	0.071	0.204	1.916	0.074	0.153	1.809	-0.078	1.273	1.668	-0.313	0.669	1.592	-0.350	0.746	1.614	0.089	0.599	1.745	0.055	0.668	1.697
212	26.837	-0.058	0.793	1.730	-0.069	1.072	1.698	-0.080	1.337	1.653	-0.080	1.477	1.617	-0.225	1.236	1.641	-0.269	0.990	1.650	-0.311	0.811	1.607	-0.319	0.735	1.590	0.079	1.218	1.652	0.095	0.971	1.720	0.119	0.799	1.777	0.113	0.770	1.768	-0.128	0.797	1.693	-0.152	0.503	1.754	-0.107	0.210	1.865	-0.101	0.169	1.754	0.014	0.797	1.703	0.064	0.507	1.769	0.070	0.205	1.915	0.073	0.154	1.808	-0.077	1.272	1.667	-0.313	0.668	1.590	-0.350	0.746	1.612	0.083	0.666	1.748	0.051	0.744	1.694
213	26.854	-0.058	0.793	1.730	-0.069	1.072	1.698	-0.080	1.337	1.653	-0.080	1.477	1.617	-0.225	1.236	1.641	-0.269	0.990	1.650	-0.311	0.811	1.607	-0.319	0.735	1.590	0.079	1.218	1.652	0.095	0.971	1.720	0.119	0.799	1.777	0.113	0.770	1.768	-0.128	0.797	1.693	-0.152	0.503	1.754	-0.107	0.210	1.865	-0.101	0.169	1.754	0.014	0.797	1.703	0.064	0.507	1.769	0.070	0.205	1.915	0.073	0.154	1.808	-0.077	1.272	1.667	-0.313	0.668	1.590	-0.350	0.746	1.612	0.083	0.666	1.748	0.051	0.744	1.694
214	26.870	-0.060	0.791	1.728	-0.069	1.070	1.697	-0.079	1.337	1.652	-0.079	1.477	1.615	-0.224	1.236	1.640	-0.269	0.990	1.649	-0.311	0.811	1.606	-0.320	0.734	1.589	0.078	1.217	1.652	0.098	0.980	1.721	0.126	0.798	1.781	0.140	0.760	1.785	-0.130	0.795	1.691	-0.153	0.501	1.753	-0.110	0.199	1.874	-0.101	0.158	1.767	0.013	0.795	1.700	0.063	0.505	1.767	0.069	0.205	1.915	0.073	0.152	1.808	-0.077	1.272	1.665	-0.314	0.668	1.589	-0.350	0.745	1.610	0.116	0.690	1.771	0.119	0.775	1.732
215	26.887	-0.060	0.791	1.728	-0.069	1.070	1.697	-0.079	1.337	1.652	-0.079	1.477	1.615	-0.224	1.236	1.640	-0.269	0.990	1.649	-0.311	0.811	1.606	-0.320	0.734	1.589	0.078	1.217	1.652	0.098	0.980	1.721	0.126	0.798	1.781	0.140	0.760	1.785	-0.130	0.795	1.691	-0.153	0.501	1.753	-0.110	0.199	1.874	-0.101	0.158	1.767	0.013	0.795	1.700	0.063	0.505	1.767	0.069	0.205	1.915	0.073	0.152	1.808	-0.077	1.272	1.665	-0.314	0.668	1.589	-0.350	0.745	1.610	0.116	0.690	1.771	0.119	0.775	1.732
